<?xml version="1.0" encoding="UTF-8"?>
<svg id="Layer_1" data-name="Layer 1" xmlns="http://www.w3.org/2000/svg" viewBox="0 0 741.74 132.09">
  <defs>
    <style>
      .cls-1 {
        fill: #fff;
      }
    </style>
  </defs>
  <g>
    <path class="cls-1" d="m16.87,1.32c15.6,0,28.24,12.18,28.24,27.19s-12.63,27.19-28.24,27.19H0V1.32h16.87Zm-5.78,44.19h5.78c8.69,0,17.1-7.81,17.1-17S25.56,11.52,16.87,11.52h-5.78v33.99Z"/>
    <path class="cls-1" d="m77.56,1.31c11.43,0,20.5,9.79,20.5,21.36,0,8.61-5.02,16.23-12.3,19.57l13.67,13.46h-14.72l-11.85-11.67h-4.19v11.67h-11.03V1.31h19.92Zm-8.89,31.7h8.89c5.13,0,9.47-4.4,9.47-10.33s-4.35-10.33-9.47-10.33h-8.89v20.67Z"/>
    <path class="cls-1" d="m144.67,1.31l19.82,54.4h-11.76l-4.25-11.67h-19.38l-4.25,11.67h-11.76L132.9,1.31h11.76Zm-11.52,31.62h11.28l-5.64-15.48-5.64,15.48Z"/>
    <path class="cls-1" d="m177.31,1.31l14.13,38.78,11.04-30.3,10.93,30.31L227.54,1.31h11.83l-19.82,54.4h-12.28l-4.79-13.44-4.9,13.44h-12.29L165.48,1.31h11.83Z"/>
    <path class="cls-1" d="m261.29,1.31l25.04,32.97V1.31h11.1v54.4h-9.92l-25.04-32.97v32.97h-11.1V1.31h9.92Zm-9.92,54.4h.26-.26Z"/>
    <path class="cls-1" d="m377.68,1.31v11.18h-16.07v43.22h-11.44V12.48h-16.07V1.31h43.57Z"/>
    <path class="cls-1" d="m444.38,28.51c0,15.75-12.82,28.51-28.64,28.51s-28.64-12.76-28.64-28.51S399.92,0,415.74,0s28.64,12.76,28.64,28.51Zm-46.44,0c0,9.82,7.97,17.8,17.8,17.8,9.82,0,17.8-7.97,17.8-17.8,0-9.82-7.97-17.8-17.8-17.8s-17.8,7.97-17.8,17.8Z"/>
    <path class="cls-1" d="m513.14,5.07l-6.22,8.99c-2.54-1.53-5.54-3-9.33-3-3.04,0-6.48,1.73-6.48,5.02s5.8,5.02,8.74,5.98c9.06,2.43,16.58,7.99,16.58,17.22v.05c0,8.96-7.4,17.69-19.21,17.69-7.81,0-13.81-2.88-19.26-7.01l5.68-9.62c3.8,2.82,8.26,5.3,13.45,5.3,3.79,0,8.01-1.85,8.01-6.35,0-4.02-5.98-5.88-9.72-7.02-7.73-2.1-15.6-6.79-15.6-16.23S487.92,0,497.58,0c7.35,0,11.61,2.59,15.56,5.07Z"/>
    <path class="cls-1" d="m579.52,6.95l-6.43,9.52c-3.73-2.83-8.17-4.69-13.24-4.69-8.97.12-17.66,5.91-18.04,16.73.38,10.82,9.06,16.61,18.04,16.73,5.07,0,9.51-1.86,13.24-4.69l6.43,9.52c-5.17,4.2-11.8,6.95-19.69,6.95-17.46,0-29.8-13.05-29.8-28.51s12.33-28.51,29.8-28.51c7.89,0,14.52,2.75,19.69,6.95Z"/>
    <path class="cls-1" d="m624.72,1.31l19.82,54.4h-11.76l-4.25-11.67h-19.38l-4.25,11.67h-11.76l19.82-54.4h11.76Zm-11.52,31.62h11.28l-5.64-15.48-5.64,15.48Z"/>
    <path class="cls-1" d="m667.47,1.31v43.29h24.7v11.11h-36.13V1.31h11.44Z"/>
    <path class="cls-1" d="m741.74,1.32v11.11h-24.84v10.98h23.92v10.22h-23.92v10.98h24.84v11.11h-35.93V1.32h35.93Z"/>
  </g>
  <g>
    <path class="cls-1" d="m26.16,76.37l19.82,54.4h-5.46l-5.38-14.78H10.84l-5.38,14.78H0l19.82-54.4h6.34Zm-13.45,34.49h20.56l-10.28-28.21-10.28,28.21Z"/>
    <path class="cls-1" d="m184.03,80.74l-2.89,4.28c-4.15-2.97-9.33-4.75-14.99-4.75-12.21.15-24.36,8.6-24.8,23.33.17,12.87,10.5,23.03,24.8,23.33,5.65,0,10.84-1.78,14.99-4.75l2.89,4.28c-5,3.54-11.19,5.63-17.88,5.63-18.01,0-29.96-12.91-29.96-28.49s11.95-28.49,29.96-28.49c6.68,0,12.88,2.09,17.88,5.63Z"/>
    <path class="cls-1" d="m247.92,76.37l19.82,54.4h-5.46l-5.38-14.78h-24.29l-5.38,14.78h-5.46l19.82-54.4h6.34Zm-13.45,34.49h20.55l-10.28-28.21-10.28,28.21Z"/>
    <path class="cls-1" d="m324.24,76.37c11.45,0,20.77,8.37,20.77,19.81s-9.32,19.81-20.77,19.81h-11.55v14.78h-5.14v-54.4h16.7Zm-11.55,34.48h11.55c8.65,0,15.63-6.01,15.63-14.67s-6.98-14.67-15.63-14.67h-11.55v29.33Z"/>
    <path class="cls-1" d="m402.57,76.37c11.45,0,20.77,8.37,20.77,19.81s-9.32,19.81-20.77,19.81h-11.55v14.78h-5.14v-54.4h16.7Zm-11.55,34.48h11.55c8.65,0,15.63-6.01,15.63-14.67s-6.98-14.67-15.63-14.67h-11.55v29.33Z"/>
    <path class="cls-1" d="m498.72,76.37v5.14h-29.37v19.48h28.46v5.14h-28.46v19.48h29.37v5.14h-34.52v-54.4h34.52Z"/>
    <path class="cls-1" d="m545.79,76.37v49.25h30.91v5.14h-36.05v-54.4h5.14Z"/>
    <path class="cls-1" d="m623.8,76.37v49.25h30.91v5.14h-36.05v-54.4h5.14Z"/>
    <path class="cls-1" d="m720.2,76.37l19.82,54.4h-5.46l-5.38-14.78h-24.29l-5.38,14.78h-5.46l19.82-54.4h6.34Zm-13.45,34.49h20.55l-10.28-28.21-10.28,28.21Z"/>
  </g>
  <rect class="cls-1" x="251.41" y="22.29" width="11.05" height="33.41"/>
</svg>