<?xml version="1.0" encoding="UTF-8"?><svg id="Layer_2" xmlns="http://www.w3.org/2000/svg" viewBox="0 0 768.81 162.31"><defs><style>.cls-1{letter-spacing:.32em;}.cls-1,.cls-2,.cls-3,.cls-4,.cls-5,.cls-6,.cls-7,.cls-8,.cls-9,.cls-10,.cls-11,.cls-12,.cls-13,.cls-14,.cls-15,.cls-16{isolation:isolate;}.cls-1,.cls-2,.cls-17,.cls-4,.cls-5,.cls-6,.cls-7,.cls-8,.cls-9,.cls-10,.cls-11,.cls-12,.cls-13,.cls-14,.cls-15,.cls-16{fill:#fff;}.cls-1,.cls-2,.cls-4,.cls-5,.cls-6,.cls-7,.cls-8,.cls-9,.cls-10,.cls-11,.cls-12,.cls-13,.cls-14,.cls-15,.cls-16{font-size:105px;}.cls-1,.cls-2,.cls-5,.cls-6,.cls-8,.cls-10,.cls-11{font-family:MOMCAKE-Thin, MOMCAKE;font-weight:200;}.cls-2{letter-spacing:.31em;}.cls-18,.cls-13{letter-spacing:.05em;}.cls-3{fill:none;}.cls-4{letter-spacing:0em;}.cls-4,.cls-7,.cls-9,.cls-12,.cls-13,.cls-14,.cls-15,.cls-16{font-family:MOMCAKE-Bold, MOMCAKE;font-weight:700;}.cls-19{letter-spacing:.04em;}.cls-5{letter-spacing:.25em;}.cls-6{letter-spacing:.24em;}.cls-7{letter-spacing:.02em;}.cls-20{letter-spacing:.29em;}.cls-9{letter-spacing:-.02em;}.cls-21{letter-spacing:.33em;}.cls-22{letter-spacing:.06em;}.cls-10{letter-spacing:.27em;}.cls-11{letter-spacing:.28em;}.cls-14{letter-spacing:.04em;}.cls-15{letter-spacing:-.12em;}.cls-16{letter-spacing:-.03em;}</style></defs><g id="Layer_1-2"><g class="cls-3"><text class="cls-14" transform="translate(0 78.43)"><tspan x="0" y="0">d</tspan></text><text class="cls-13" transform="translate(57.64 78.43)"><tspan x="0" y="0">r</tspan></text><text class="cls-15" transform="translate(113.08 78.43)"><tspan x="0" y="0">a</tspan></text><text class="cls-16" transform="translate(165.48 78.43)"><tspan x="0" y="0">w</tspan></text><text class="cls-13" transform="translate(251.37 78.43)"><tspan x="0" y="0">n </tspan></text><text class="cls-4" transform="translate(334.11 78.43)"><tspan x="0" y="0">t</tspan></text><text class="cls-7" transform="translate(387.13 78.43)"><tspan x="0" y="0">o</tspan></text><text class="cls-12" transform="translate(454.86 78.43)"><tspan class="cls-18" x="0" y="0"> </tspan><tspan class="cls-19" x="26.25" y="0">s</tspan><tspan class="cls-18" x="71.92" y="0">c</tspan></text><text class="cls-9" transform="translate(593.14 78.43)"><tspan x="0" y="0">a</tspan></text><text class="cls-12" transform="translate(656.03 78.43)"><tspan class="cls-22" x="0" y="0">l</tspan><tspan class="cls-18" x="47.25" y="0">e</tspan></text></g><g class="cls-3"><text class="cls-6" transform="translate(0 153.49)"><tspan x="0" y="0">A</tspan></text><text class="cls-1" transform="translate(84.74 153.49)"><tspan x="0" y="0"> </tspan></text><text class="cls-11" transform="translate(136.18 153.49)"><tspan x="0" y="0">C</tspan></text><text class="cls-5" transform="translate(221.76 153.49)"><tspan x="0" y="0">A</tspan></text><text class="cls-2" transform="translate(307.54 153.49)"><tspan x="0" y="0">PP</tspan></text><text class="cls-8" transform="translate(464.2 153.49)"><tspan class="cls-21" x="0" y="0">E</tspan><tspan class="cls-20" x="75.39" y="0">L</tspan></text><text class="cls-10" transform="translate(618.66 153.49)"><tspan x="0" y="0">L</tspan></text><text class="cls-6" transform="translate(694.05 153.49)"><tspan x="0" y="0">A</tspan></text></g><rect class="cls-17" x="255.61" y="45.01" width="11.05" height="33.41"/></g></svg>